<svg width="128" height="128" viewBox="0 0 128 128" fill="none" xmlns="http://www.w3.org/2000/svg">
<path d="M62.8545 45.1726C63.6511 42.1853 66.6387 40.3927 69.626 41.1892C72.6133 41.9858 74.406 44.9733 73.6094 47.9607L64.3486 82.614C63.6516 85.1032 61.4609 86.7955 58.9717 86.7957C58.5734 86.7957 58.075 86.697 57.5771 86.5974C54.5899 85.8008 52.897 82.7136 53.6934 79.8259L62.8545 45.1726ZM37.7607 44.3757C40.1506 42.4837 43.6363 42.8823 45.5283 45.2722C47.42 47.6621 47.0216 51.1469 44.6318 53.0388L31.0889 63.8933L44.6318 74.7468C47.0217 76.6388 47.4203 80.1245 45.5283 82.5144C44.433 83.9085 42.7397 84.6052 41.1465 84.6052C39.9516 84.6052 38.6569 84.2075 37.6611 83.4109L18.8408 68.2742C17.5466 67.1789 16.7501 65.5859 16.75 63.8933C16.75 62.2005 17.5464 60.6068 18.8408 59.5115L37.7607 44.3757ZM82.4717 45.2722C84.3637 42.8823 87.8494 42.4837 90.2393 44.3757L109.159 59.5115C110.454 60.6068 111.25 62.2005 111.25 63.8933C111.25 65.5859 110.453 67.1789 109.159 68.2742L90.2393 83.4109C89.2436 84.2074 87.9488 84.6052 86.7539 84.6052C85.0611 84.6052 83.4674 83.9085 82.3721 82.5144C80.4801 80.1245 80.8787 76.6388 83.2686 74.7468L96.8115 63.8933L83.2686 53.0388C80.8787 51.1469 80.4803 47.6621 82.4717 45.2722Z" fill="url(#paint0_linear_552_1817)"/>
<defs>
<linearGradient id="paint0_linear_552_1817" x1="41.1019" y1="41" x2="86.8976" y2="86.7962" gradientUnits="userSpaceOnUse">
<stop stop-color="#00FF87"/>
<stop offset="1" stop-color="#0066FF"/>
</linearGradient>
</defs>
</svg>
